<?xml version="1.0" encoding="UTF-8"?>
<svg xmlns="http://www.w3.org/2000/svg" style="display: none;">
  <symbol id="url-incrementer" viewBox="0 0 136.53 136.53">
    <path d="m82.354.63281v20.098h-22.586v29.426h22.586v19.137h30.9v-19.137h22.85v-29.426h-22.85v-20.098h-30.9zm-81.758 82.203v29.178c0 16.156 7.9977 24.234 23.994 24.234 16.075 0 24.111-8.1023 24.111-24.305v-29.107h-16.777v29.178c0 6.546-2.4451 9.8184-7.334 9.8184-4.8498 0-7.2754-3.2963-7.2754-9.8887v-29.107h-16.719zm52.062.13867v51.531h16.484v-14.762l10.268 14.762h20.943l-17.014-20.543c7.0009-2.5998 10.502-7.4277 10.502-14.484 0-5.7103-2.2093-10.026-6.6289-12.951-3.5591-2.3677-7.9388-3.5527-13.141-3.5527h-21.414zm50.992 0v51.531h32.678v-13.926h-16.133v-37.605h-16.545zm-33.979 12.883h1.1133c1.3689 0 2.5827.30272 3.6387.90625 1.3298.74281 1.9941 1.8562 1.9941 3.3418 0 1.5785-.64488 2.7635-1.9355 3.5527-1.0169.64993-2.2502.97461-3.6973.97461h-1.4648c-.039111-.04648-.099512-.07031-.17773-.07031v-8.6348h.29492c.078222-.046412.15615-.070312.23438-.070312z"/>
  </symbol>
  <symbol id="infy-scroll" viewBox="0 0 640 512">
    <path d="M471.1 96C405 96 353.3 137.3 320 174.6 286.7 137.3 235 96 168.9 96 75.8 96 0 167.8 0 256s75.8 160 168.9 160c66.1 0 117.8-41.3 151.1-78.6 33.3 37.3 85 78.6 151.1 78.6 93.1 0 168.9-71.8 168.9-160S564.2 96 471.1 96zM168.9 320c-40.2 0-72.9-28.7-72.9-64s32.7-64 72.9-64c38.2 0 73.4 36.1 94 64-20.4 27.6-55.9 64-94 64zm302.2 0c-38.2 0-73.4-36.1-94-64 20.4-27.6 55.9-64 94-64 40.2 0 72.9 28.7 72.9 64s-32.7 64-72.9 64z"/>
  </symbol>
  <symbol id="downloadyze" viewBox="0 0 640 512">
    <path d="M537.6 226.6c4.1-10.7 6.4-22.4 6.4-34.6 0-53-43-96-96-96-19.7 0-38.1 6-53.3 16.2C367 64.2 315.3 32 256 32c-88.4 0-160 71.6-160 160 0 2.7.1 5.4.2 8.1C40.2 219.8 0 273.2 0 336c0 79.5 64.5 144 144 144h368c70.7 0 128-57.3 128-128 0-61.9-44-113.6-102.4-125.4zm-132.9 88.7L299.3 420.7c-6.2 6.2-16.4 6.2-22.6 0L171.3 315.3c-10.1-10.1-2.9-27.3 11.3-27.3H248V176c0-8.8 7.2-16 16-16h48c8.8 0 16 7.2 16 16v112h65.4c14.2 0 21.4 17.2 11.3 27.3z"/>
  </symbol>
  <symbol id="elempick" viewBox="0 0 512 512">
    <path d="m 50.397787,92.082382 c -4.9,-11.9 -2.1,-25.6 7,-34.7 9.1,-9.1 22.8,-11.9 34.7,-7 L 444.09778,194.38238 c 14.2,5.8 22.2,20.8 19.3,35.8 -2.9,15 -16.1,25.8 -31.4,25.8 H 255.99779 v 176 c 0,15.3 -10.8,28.4 -25.8,31.4 -15,3 -30,-5.1 -35.8,-19.3 z"/>
  </symbol>
  <symbol id="url-increment-button" viewBox="0 0 512 512">
    <path d="M256 8C119 8 8 119 8 256s111 248 248 248 248-111 248-248S393 8 256 8zm144 276c0 6.6-5.4 12-12 12h-92v92c0 6.6-5.4 12-12 12h-56c-6.6 0-12-5.4-12-12v-92h-92c-6.6 0-12-5.4-12-12v-56c0-6.6 5.4-12 12-12h92v-92c0-6.6 5.4-12 12-12h56c6.6 0 12 5.4 12 12v92h92c6.6 0 12 5.4 12 12v56z"/>
  </symbol>
  <symbol id="url-decrement-button" viewBox="0 0 512 512">
    <path d="M256 8C119 8 8 119 8 256s111 248 248 248 248-111 248-248S393 8 256 8zM124 296c-6.6 0-12-5.4-12-12v-56c0-6.6 5.4-12 12-12h264c6.6 0 12 5.4 12 12v56c0 6.6-5.4 12-12 12H124z"/>
  </symbol>
</svg>